<svg width="23" height="23" viewBox="0 0 23 23" fill="none" xmlns="http://www.w3.org/2000/svg">
<circle cx="12.75" cy="11.75" r="9.25" fill="url(#paint0_linear_1011_2093)" fill-opacity="0.8"/>
<path d="M22 1H10.2753C8.58422 1 6.93097 1.50056 5.5239 2.43861V2.43861C5.05457 2.7515 4.61729 3.10998 4.21843 3.50884L3.50884 4.21843C3.10998 4.61729 2.7515 5.05457 2.43861 5.5239V5.5239C1.50056 6.93097 1 8.58422 1 10.2753V12.7247C1 14.4158 1.50056 16.069 2.43861 17.4761V17.4761C2.7515 17.9454 3.10998 18.3827 3.50884 18.7816L4.21843 19.4912C4.61729 19.89 5.05457 20.2485 5.5239 20.5614V20.5614C6.93097 21.4994 8.58422 22 10.2753 22H13.2375C14.9137 22 16.561 21.5626 18.0164 20.7309L18.2879 20.5757C18.851 20.254 19.3687 19.8585 19.8274 19.3999V19.3999C20.6284 18.5989 21.232 17.6223 21.5902 16.5476L21.6111 16.4848C21.8687 15.7121 22 14.903 22 14.0885V6.72727" stroke="#4782ff"/>
<path d="M7.5 15.5L8.5 16.25C10.2778 17.5833 12.7222 17.5833 14.5 16.25L15.5 15.5" stroke="#4782ff"/>
<defs>
<linearGradient id="paint0_linear_1011_2093" x1="12.75" y1="2.5" x2="12.75" y2="21" gradientUnits="userSpaceOnUse">
<stop stop-color="#4782ff"/>
<stop offset="1" stop-color="#00D084"/>
</linearGradient>
</defs>
</svg>
