<svg width="25" height="25" viewBox="0 0 25 25" fill="none" xmlns="http://www.w3.org/2000/svg">
<circle cx="14.25" cy="14.25" r="9.25" fill="url(#paint0_linear_1011_2087)" fill-opacity="0.8"/>
<path d="M6 6L11.6492 1.15785C12.4194 0.497657 13.5619 0.518677 14.3073 1.20676L19.5 6" stroke="#4782ff"/>
<path d="M1 16.5V19C1 21.7614 3.23858 24 6 24H19C21.7614 24 24 21.7614 24 19V12C24 9.23858 21.7614 7 19 7H6C3.23858 7 1 9.23858 1 12V13" stroke="#4782ff"/>
<path d="M23 13H19.8284C19.298 13 18.7893 13.2107 18.4142 13.5858V13.5858C17.6332 14.3668 17.6332 15.6332 18.4142 16.4142V16.4142C18.7893 16.7893 19.298 17 19.8284 17H23" stroke="url(#paint1_linear_1011_2087)"/>
<defs>
<linearGradient id="paint0_linear_1011_2087" x1="14.25" y1="5" x2="14.25" y2="23.5" gradientUnits="userSpaceOnUse">
<stop stop-color="#4782ff"/>
<stop offset="1" stop-color="#00D084"/>
</linearGradient>
<linearGradient id="paint1_linear_1011_2087" x1="20" y1="13" x2="20" y2="17" gradientUnits="userSpaceOnUse">
<stop stop-color="#4782ff"/>
</linearGradient>
</defs>
</svg>
